HIERARCHY
ROOT newVegas:Hips
{
	OFFSET 0.000000 96.479958 0.000000
	CHANNELS 6 Xposition Yposition Zposition Xrotation Yrotation Zrotation
	JOINT newVegas:Pelvis
	{
		OFFSET 0.000000 0.000000 0.000000
		CHANNELS 3 Xrotation Yrotation Zrotation
		JOINT newVegas:LeftUpLeg
		{
			OFFSET 18.735201 -5.666702 -4.541200
			CHANNELS 3 Xrotation Yrotation Zrotation
			JOINT newVegas:LeftLeg
			{
				OFFSET -0.021200 -31.938179 0.493100
				CHANNELS 3 Xrotation Yrotation Zrotation
				JOINT newVegas:LeftFoot
				{
					OFFSET 0.021200 -31.938179 -4.336299
					CHANNELS 3 Xrotation Yrotation Zrotation
					JOINT newVegas:LeftToeBase
					{
						OFFSET 0.943001 -26.722000 15.023500
						CHANNELS 3 Xrotation Yrotation Zrotation
						End Site
						{
							OFFSET 0.000000 30.670183 0.000000
						}
					}
				}
				JOINT newVegas:Left_PantLeg
				{
					OFFSET 0.663870 -9.044666 -1.108900
					CHANNELS 3 Xrotation Yrotation Zrotation
					End Site
					{
						OFFSET 1.415995 20.635357 0.000000
					}
				}
			}
		}
		JOINT newVegas:RightUpLeg
		{
			OFFSET -18.735201 -5.666702 -4.541200
			CHANNELS 3 Xrotation Yrotation Zrotation
			JOINT newVegas:RightLeg
			{
				OFFSET 0.018946 -31.938133 0.493100
				CHANNELS 3 Xrotation Yrotation Zrotation
				JOINT newVegas:RightFoot
				{
					OFFSET -0.018946 -31.938126 -4.336299
					CHANNELS 3 Xrotation Yrotation Zrotation
					JOINT newVegas:RightToeBase
					{
						OFFSET -0.943001 -26.722004 15.023500
						CHANNELS 3 Xrotation Yrotation Zrotation
						End Site
						{
							OFFSET 0.000000 30.670187 0.000000
						}
					}
				}
				JOINT newVegas:Right_PantLeg
				{
					OFFSET -0.661674 -9.044716 -1.108900
					CHANNELS 3 Xrotation Yrotation Zrotation
					End Site
					{
						OFFSET -1.415958 20.635269 0.000000
					}
				}
			}
		}
	}
	JOINT newVegas:Spine
	{
		OFFSET 0.000000 10.199997 -0.299500
		CHANNELS 3 Xrotation Yrotation Zrotation
		JOINT newVegas:Spine1
		{
			OFFSET 0.000000 11.900002 -1.516600
			CHANNELS 3 Xrotation Yrotation Zrotation
			JOINT newVegas:Spine2
			{
				OFFSET 0.000000 13.600006 -2.842500
				CHANNELS 3 Xrotation Yrotation Zrotation
				JOINT newVegas:Neck
				{
					OFFSET 0.000000 9.624100 -2.890100
					CHANNELS 3 Xrotation Yrotation Zrotation
					JOINT newVegas:Head
					{
						OFFSET 0.000000 14.068802 -1.351900
						CHANNELS 3 Xrotation Yrotation Zrotation
						JOINT newVegas:Hair_Back
						{
							OFFSET 0.000000 3.231903 -17.524799
							CHANNELS 3 Xrotation Yrotation Zrotation
							End Site
							{
								OFFSET 0.000000 19.849884 0.000000
							}
						}
						JOINT newVegas:Hair_Front
						{
							OFFSET 0.000000 31.260406 4.573800
							CHANNELS 3 Xrotation Yrotation Zrotation
							JOINT newVegas:Hair_Front1
							{
								OFFSET 0.000000 2.284103 11.993300
								CHANNELS 3 Xrotation Yrotation Zrotation
								JOINT newVegas:Hair_Front2
								{
									OFFSET 0.000000 2.284103 11.993300
									CHANNELS 3 Xrotation Yrotation Zrotation
									End Site
									{
										OFFSET 0.000000 12.208862 0.000000
									}
								}
							}
						}
						JOINT newVegas:Jowel
						{
							OFFSET 0.000000 -7.458206 6.864100
							CHANNELS 3 Xrotation Yrotation Zrotation
							End Site
							{
								OFFSET 0.000000 19.849884 0.000000
							}
						}
					}
				}
				JOINT newVegas:LeftShoulder
				{
					OFFSET 15.263000 10.923401 -0.547700
					CHANNELS 3 Xrotation Yrotation Zrotation
					JOINT newVegas:LeftArm
					{
						OFFSET 25.438599 -2.830597 -13.032500
						CHANNELS 3 Xrotation Yrotation Zrotation
						JOINT newVegas:LeftForeArm
						{
							OFFSET 29.960503 0.000000 0.000000
							CHANNELS 3 Xrotation Yrotation Zrotation
							JOINT newVegas:LeftHand
							{
								OFFSET 27.849251 0.000000 0.000000
								CHANNELS 3 Xrotation Yrotation Zrotation
								JOINT newVegas:LeftHandThumb1
								{
									OFFSET 4.487587 -3.305161 6.305391
									CHANNELS 3 Xrotation Yrotation Zrotation
									JOINT newVegas:LeftHandThumb2
									{
										OFFSET 5.480453 -3.164139 3.164143
										CHANNELS 3 Xrotation Yrotation Zrotation
										JOINT newVegas:LeftHandThumb3
										{
											OFFSET 5.159721 -2.978973 2.978967
											CHANNELS 3 Xrotation Yrotation Zrotation
											End Site
											{
												OFFSET 2.494507 5.926697 1.738678
											}
										}
									}
								}
								JOINT newVegas:LeftHandIndex1
								{
									OFFSET 18.578728 -0.527832 5.208049
									CHANNELS 3 Xrotation Yrotation Zrotation
									JOINT newVegas:LeftHandIndex2
									{
										OFFSET 3.192009 0.000000 0.000000
										CHANNELS 3 Xrotation Yrotation Zrotation
										JOINT newVegas:LeftHandIndex3
										{
											OFFSET 3.835129 0.000000 0.000000
											CHANNELS 3 Xrotation Yrotation Zrotation
											End Site
											{
												OFFSET -0.034599 3.816971 0.371180
											}
										}
									}
								}
								JOINT newVegas:LeftHandMiddle1
								{
									OFFSET 18.476105 0.000000 0.000000
									CHANNELS 3 Xrotation Yrotation Zrotation
									JOINT newVegas:LeftHandMiddle2
									{
										OFFSET 3.324875 0.000000 0.000000
										CHANNELS 3 Xrotation Yrotation Zrotation
										JOINT newVegas:LeftHandMiddle3
										{
											OFFSET 4.596550 0.000000 0.000000
											CHANNELS 3 Xrotation Yrotation Zrotation
											End Site
											{
												OFFSET 0.057701 4.578827 0.399218
											}
										}
									}
								}
								JOINT newVegas:LeftHandRing1
								{
									OFFSET 17.732719 0.121887 -4.201567
									CHANNELS 3 Xrotation Yrotation Zrotation
									JOINT newVegas:LeftHandRing2
									{
										OFFSET 2.733170 0.000000 0.000000
										CHANNELS 3 Xrotation Yrotation Zrotation
										JOINT newVegas:LeftHandRing3
										{
											OFFSET 3.178268 0.000000 0.000000
											CHANNELS 3 Xrotation Yrotation Zrotation
											End Site
											{
												OFFSET 0.119102 3.170624 0.185394
											}
										}
									}
								}
								JOINT newVegas:LeftHandPinky1
								{
									OFFSET 15.989624 -0.606689 -7.535461
									CHANNELS 3 Xrotation Yrotation Zrotation
									JOINT newVegas:LeftHandPinky2
									{
										OFFSET 2.538986 0.000000 0.000000
										CHANNELS 3 Xrotation Yrotation Zrotation
										JOINT newVegas:LeftHandPinky3
										{
											OFFSET 2.593102 0.000000 0.000000
											CHANNELS 3 Xrotation Yrotation Zrotation
											End Site
											{
												OFFSET -0.150902 2.584198 0.152708
											}
										}
									}
								}
							}
							JOINT newVegas:Left_Sleeve
							{
								OFFSET 0.267448 -0.649796 0.577675
								CHANNELS 3 Xrotation Yrotation Zrotation
								End Site
								{
									OFFSET 0.000000 15.991241 0.000000
								}
							}
							JOINT newVegas:Left_CapeC
							{
								OFFSET 15.715958 -8.608795 -6.935905
								CHANNELS 3 Xrotation Yrotation Zrotation
								JOINT newVegas:Left_CapeC1
								{
									OFFSET 0.000000 -8.688499 0.000000
									CHANNELS 3 Xrotation Yrotation Zrotation
									End Site
									{
										OFFSET 0.000000 8.688499 0.000000
									}
								}
							}
						}
						JOINT newVegas:Left_CapeB
						{
							OFFSET 26.118385 -8.608795 -7.079235
							CHANNELS 3 Xrotation Yrotation Zrotation
							JOINT newVegas:Left_CapeB1
							{
								OFFSET 0.000000 -8.688499 0.000000
								CHANNELS 3 Xrotation Yrotation Zrotation
								End Site
								{
									OFFSET 0.000000 8.688499 0.000000
								}
							}
						}
						JOINT newVegas:Left_CapeA
						{
							OFFSET 5.115639 -8.608795 -10.395809
							CHANNELS 3 Xrotation Yrotation Zrotation
							JOINT newVegas:Left_CapeA1
							{
								OFFSET 0.000000 -8.688499 0.000000
								CHANNELS 3 Xrotation Yrotation Zrotation
								End Site
								{
									OFFSET 0.000000 8.688499 0.000000
								}
							}
						}
					}
				}
				JOINT newVegas:RightShoulder
				{
					OFFSET -15.263000 10.923401 -0.547700
					CHANNELS 3 Xrotation Yrotation Zrotation
					JOINT newVegas:RightArm
					{
						OFFSET -25.438599 -2.830597 -13.032500
						CHANNELS 3 Xrotation Yrotation Zrotation
						JOINT newVegas:RightForeArm
						{
							OFFSET -29.960503 0.000000 0.000000
							CHANNELS 3 Xrotation Yrotation Zrotation
							JOINT newVegas:RightHand
							{
								OFFSET -27.849251 0.000000 0.000000
								CHANNELS 3 Xrotation Yrotation Zrotation
								JOINT newVegas:RightHandThumb1
								{
									OFFSET -4.487587 -3.305161 6.305391
									CHANNELS 3 Xrotation Yrotation Zrotation
									JOINT newVegas:RightHandThumb2
									{
										OFFSET -5.480453 -3.164139 3.164143
										CHANNELS 3 Xrotation Yrotation Zrotation
										JOINT newVegas:RightHandThumb3
										{
											OFFSET -5.159721 -2.978973 2.978967
											CHANNELS 3 Xrotation Yrotation Zrotation
											End Site
											{
												OFFSET -2.494507 5.926697 1.738678
											}
										}
									}
								}
								JOINT newVegas:RightHandIndex1
								{
									OFFSET -18.578728 -0.527832 5.208049
									CHANNELS 3 Xrotation Yrotation Zrotation
									JOINT newVegas:RightHandIndex2
									{
										OFFSET -3.192009 0.000000 0.000000
										CHANNELS 3 Xrotation Yrotation Zrotation
										JOINT newVegas:RightHandIndex3
										{
											OFFSET -3.835129 0.000000 0.000000
											CHANNELS 3 Xrotation Yrotation Zrotation
											End Site
											{
												OFFSET 0.034599 3.816971 0.371180
											}
										}
									}
								}
								JOINT newVegas:RightHandMiddle1
								{
									OFFSET -18.476105 0.000000 0.000000
									CHANNELS 3 Xrotation Yrotation Zrotation
									JOINT newVegas:RightHandMiddle2
									{
										OFFSET -3.324875 0.000000 0.000000
										CHANNELS 3 Xrotation Yrotation Zrotation
										JOINT newVegas:RightHandMiddle3
										{
											OFFSET -4.596550 0.000000 0.000000
											CHANNELS 3 Xrotation Yrotation Zrotation
											End Site
											{
												OFFSET -0.057701 4.578827 0.399218
											}
										}
									}
								}
								JOINT newVegas:RightHandRing1
								{
									OFFSET -17.732719 0.121887 -4.201567
									CHANNELS 3 Xrotation Yrotation Zrotation
									JOINT newVegas:RightHandRing2
									{
										OFFSET -2.733170 0.000000 0.000000
										CHANNELS 3 Xrotation Yrotation Zrotation
										JOINT newVegas:RightHandRing3
										{
											OFFSET -3.178268 0.000000 0.000000
											CHANNELS 3 Xrotation Yrotation Zrotation
											End Site
											{
												OFFSET -0.119102 3.170624 0.185394
											}
										}
									}
								}
								JOINT newVegas:RightHandPinky1
								{
									OFFSET -15.989624 -0.606689 -7.535461
									CHANNELS 3 Xrotation Yrotation Zrotation
									JOINT newVegas:RightHandPinky2
									{
										OFFSET -2.538986 0.000000 0.000000
										CHANNELS 3 Xrotation Yrotation Zrotation
										JOINT newVegas:RightHandPinky3
										{
											OFFSET -2.593102 0.000000 0.000000
											CHANNELS 3 Xrotation Yrotation Zrotation
											End Site
											{
												OFFSET 0.150902 2.584198 0.152708
											}
										}
									}
								}
							}
							JOINT newVegas:Right_CapeC
							{
								OFFSET -15.715958 -8.608795 -6.935905
								CHANNELS 3 Xrotation Yrotation Zrotation
								JOINT newVegas:Right_CapeC1
								{
									OFFSET 0.000000 -8.688499 0.000000
									CHANNELS 3 Xrotation Yrotation Zrotation
									End Site
									{
										OFFSET 0.000000 8.688499 0.000000
									}
								}
							}
							JOINT newVegas:Right_Sleeve
							{
								OFFSET -0.267448 -0.649994 0.577675
								CHANNELS 3 Xrotation Yrotation Zrotation
								End Site
								{
									OFFSET 0.000000 15.991302 0.000000
								}
							}
						}
						JOINT newVegas:Right_CapeA
						{
							OFFSET -5.115540 -8.608795 -10.395824
							CHANNELS 3 Xrotation Yrotation Zrotation
							JOINT newVegas:Right_CapeA1
							{
								OFFSET 0.000000 -8.688499 0.000000
								CHANNELS 3 Xrotation Yrotation Zrotation
								End Site
								{
									OFFSET 0.000000 8.688499 0.000000
								}
							}
						}
						JOINT newVegas:Right_CapeB
						{
							OFFSET -26.118187 -8.608795 -7.079266
							CHANNELS 3 Xrotation Yrotation Zrotation
							JOINT newVegas:Right_CapeB1
							{
								OFFSET 0.000000 -8.688499 0.000000
								CHANNELS 3 Xrotation Yrotation Zrotation
								End Site
								{
									OFFSET 0.000000 8.688499 0.000000
								}
							}
						}
					}
				}
				JOINT newVegas:Left_Collar
				{
					OFFSET 18.625099 8.655502 8.828100
					CHANNELS 3 Xrotation Yrotation Zrotation
					JOINT newVegas:Left_Collar1
					{
						OFFSET 14.783401 10.540405 -1.259500
						CHANNELS 3 Xrotation Yrotation Zrotation
						End Site
						{
							OFFSET 0.000000 18.199875 0.000000
						}
					}
				}
				JOINT newVegas:Collar_Back
				{
					OFFSET 0.000000 15.630707 -20.132601
					CHANNELS 3 Xrotation Yrotation Zrotation
					End Site
					{
						OFFSET 0.000000 22.523010 0.000000
					}
				}
				JOINT newVegas:Left_Peck
				{
					OFFSET 17.239599 -5.132599 25.482599
					CHANNELS 3 Xrotation Yrotation Zrotation
					End Site
					{
						OFFSET 0.000000 22.523010 0.000000
					}
				}
				JOINT newVegas:Right_Peck
				{
					OFFSET -17.239599 -5.132202 25.482599
					CHANNELS 3 Xrotation Yrotation Zrotation
					End Site
					{
						OFFSET 0.000000 22.523010 0.000000
					}
				}
				JOINT newVegas:Right_Collar
				{
					OFFSET -18.625099 8.655792 8.828100
					CHANNELS 3 Xrotation Yrotation Zrotation
					JOINT newVegas:Right_Collar1
					{
						OFFSET -14.783401 10.539993 -1.259500
						CHANNELS 3 Xrotation Yrotation Zrotation
						End Site
						{
							OFFSET 0.000000 18.199631 0.000000
						}
					}
				}
			}
		}
		JOINT newVegas:Belly
		{
			OFFSET 0.000000 -6.540398 9.014299
			CHANNELS 3 Xrotation Yrotation Zrotation
			End Site
			{
				OFFSET 0.000000 11.566666 0.000000
			}
		}
	}
	JOINT newVegas:ElvisFacialAnim_Joint
	{
		OFFSET 1.000000 -95.330101 -8.825800
		CHANNELS 3 Xrotation Yrotation Zrotation
		End Site
		{
			OFFSET 0.000000 35.315800 0.000000
		}
	}
}
MOTION
Frames: 4
Frame Time: 0.033333
3.221794 33.810143 8.156845 -50.531963 -9.720742 36.712069 0.000001 -0.000001 0.000001 -125.314819 72.906778 63.833261 131.785194 31.164196 14.011223 -5.285752 9.365865 26.335510 -0.000000 0.000001 -0.000000 -0.000000 -0.000002 0.000001 -47.841579 -36.212840 12.296572 80.678584 -17.645604 4.574124 24.543004 -18.916405 -20.598064 0.000000 0.000000 0.000001 -0.000000 -0.000001 -0.000000 62.862008 -21.645541 4.658141 9.014724 -6.321026 -0.560397 9.124303 -6.394245 0.168024 0.493989 0.746038 -0.694618 0.493978 0.746039 -0.694614 -0.000001 -0.000001 0.000000 0.493984 0.746035 -0.694612 0.493957 0.746049 -0.694623 0.000005 0.000000 -0.000001 -0.000001 -0.000001 0.000001 13.328201 -50.619123 10.411687 -16.591757 24.167487 -1.353248 0.000004 -122.744688 -0.000005 -18.218432 -10.207680 -20.967248 -6.000705 -6.126807 4.616746 5.976273 12.648864 1.336741 -0.000000 -0.000001 -0.000003 0.069889 2.623050 -2.564651 0.184693 1.460884 -14.410306 -0.000005 -0.000001 -0.000001 0.255187 3.844813 -14.656268 0.215186 1.574726 -15.561218 -0.000002 0.000001 -0.000001 0.581447 4.766479 -24.229847 0.393456 2.112595 -21.098197 0.000001 0.000001 0.000001 0.566963 4.734110 -23.882629 0.380782 2.079452 -20.751713 -0.000001 0.000000 -0.000001 0.000000 -0.000002 0.000002 0.000000 -0.000002 0.000002 -0.000001 -0.000001 0.000002 -0.000002 -0.000002 0.000002 -0.000002 -0.000003 0.000002 -0.000002 -0.000002 0.000002 -0.000004 -0.000003 0.000000 1.244777 15.236547 3.373234 -18.781757 -29.180829 81.431933 -0.000004 39.422592 0.000003 14.778894 -11.155077 -43.282868 -13.964554 17.994675 -8.156010 6.417136 -14.929474 -2.153391 -0.000000 -0.000003 0.000001 20.747885 12.104783 -50.816344 0.000000 -0.000001 0.000007 0.000000 0.000001 0.000001 1.633060 1.227888 -51.010677 -0.000001 -0.000050 0.000601 0.000000 0.000001 -0.000001 -7.567677 -6.576369 -50.472380 0.005859 -0.233763 2.870701 -0.000000 0.000001 -0.000002 -21.962055 -10.468540 -48.927292 0.000000 -0.000483 0.005986 0.000001 0.000002 -0.000000 -0.000001 -0.000000 -0.000001 0.000000 -0.000001 -0.000001 -0.000001 -0.000001 -0.000000 0.000000 0.000003 0.000001 0.000000 0.000003 -0.000000 0.000000 0.000003 0.000001 0.000000 0.000003 -0.000000 0.000000 0.000000 -0.000001 0.000000 0.000000 -0.000001 0.000000 0.000000 -0.000001 0.000000 0.000000 -0.000001 0.000000 0.000000 -0.000001 0.000000 0.000000 -0.000001 0.000000 0.000000 -0.000001 -0.000000 0.000000 0.000001 0.000001 -0.000001 0.000001 
2.666973 36.625546 4.333145 -45.511668 -7.205776 40.134803 0.000003 -0.000001 -0.000000 -98.525144 51.838878 40.565081 134.033337 10.324766 7.843378 7.941707 2.394559 6.932626 0.000001 0.000000 -0.000001 0.000000 -0.000001 0.000002 -53.753333 -29.755483 3.861264 83.455841 -5.446770 4.054972 13.759187 -16.766757 -5.152199 0.000002 -0.000000 -0.000001 -0.000000 0.000003 -0.000000 61.285553 -19.587570 5.816475 8.756676 -5.877777 2.929422 8.992529 -5.136809 1.216869 0.497829 0.673160 -0.758699 0.497824 0.673162 -0.758693 -0.000000 -0.000000 -0.000000 0.497815 0.673165 -0.758686 0.497852 0.673180 -0.758691 -0.000000 -0.000001 0.000001 -0.000000 -0.000000 -0.000001 15.010423 -43.798212 11.816297 -17.585548 15.693943 -5.616386 -0.000019 -122.172605 -0.000030 -18.896019 -7.863049 -27.184433 -6.000694 -6.126803 4.616738 5.764451 12.265128 1.319649 0.000006 0.000000 0.000001 0.365070 1.868782 -2.611649 0.153359 1.333007 -13.124749 -0.000001 0.000002 0.000001 0.175020 3.514956 -13.404986 0.178774 1.437650 -14.176247 -0.000000 -0.000004 0.000002 0.504872 4.589196 -22.160202 0.326767 1.930984 -19.208102 -0.000001 -0.000001 0.000002 -0.446220 5.186450 -22.186869 0.315937 1.899662 -18.884496 -0.000000 -0.000000 0.000002 -0.000000 -0.000001 -0.000003 -0.000000 -0.000001 -0.000003 -0.000001 -0.000001 -0.000003 -0.000003 0.000002 -0.000001 -0.000003 0.000001 -0.000001 -0.000003 0.000002 -0.000001 -0.000004 0.000003 -0.000001 -0.062921 13.516432 8.870491 -27.515289 -28.683615 70.438511 0.000015 38.773830 -0.000036 15.371262 -10.514060 -44.780213 -13.964549 17.994678 -8.156030 6.417140 -14.929468 -2.153404 0.000000 -0.000001 0.000001 20.747890 12.104781 -50.816372 0.000001 0.000001 0.000022 0.000000 0.000001 0.000000 1.633056 1.227888 -51.010694 -0.000001 -0.000050 0.000600 0.000000 -0.000000 0.000001 -7.567681 -6.576364 -50.472397 0.005858 -0.233763 2.870705 -0.000001 -0.000001 -0.000002 -21.962055 -10.468545 -48.927295 -0.000004 -0.000493 0.005985 -0.000000 0.000007 0.000000 -0.000002 0.000001 0.000001 -0.000001 -0.000001 0.000000 -0.000002 0.000001 -0.000000 -0.000000 -0.000002 0.000002 -0.000000 -0.000002 0.000001 -0.000000 -0.000002 0.000002 -0.000000 -0.000001 0.000003 -0.000000 -0.000002 -0.000002 -0.000000 -0.000002 -0.000002 -0.000000 -0.000002 -0.000002 -0.000000 -0.000002 -0.000002 -0.000000 -0.000002 -0.000002 -0.000000 -0.000002 -0.000002 -0.000000 -0.000002 -0.000002 -0.000001 -0.000000 -0.000000 0.000003 -0.000001 -0.000000 
2.574875 39.981804 -0.193924 -39.966545 -3.353784 43.971788 -0.000002 0.000001 -0.000001 -77.068214 32.484677 31.820096 127.012613 -9.106874 2.882628 5.400922 -4.880524 -17.635328 -0.000000 -0.000001 0.000002 -0.000000 0.000002 -0.000000 -59.156405 -26.089608 -1.063076 80.789465 -2.433596 3.597978 11.423383 -16.554927 -4.265727 -0.000001 0.000000 -0.000001 -0.000000 -0.000001 -0.000000 59.584706 -18.441441 6.910566 8.477195 -5.452507 6.327726 8.805381 -3.931317 2.232507 0.376970 0.606323 -0.709967 0.376989 0.606321 -0.709985 0.000001 0.000000 -0.000000 0.377026 0.606346 -0.709966 0.376927 0.606281 -0.709964 -0.000000 0.000004 0.000001 0.000001 0.000000 -0.000000 16.672896 -37.280668 12.821582 -19.398098 10.346273 -10.999814 -0.000004 -121.569267 0.000006 -16.508933 -3.990445 -28.339584 -6.000711 -6.126812 4.616750 5.537209 11.853080 1.300772 0.000000 0.000001 -0.000003 0.846214 1.192019 -3.698740 0.123740 1.198897 -11.783731 -0.000002 0.000001 -0.000001 0.121747 3.287736 -13.293640 0.144241 1.293316 -12.727273 -0.000002 0.000000 0.000001 0.477455 4.521733 -21.256500 0.263308 1.738175 -17.225266 0.000002 -0.000000 -0.000002 -1.802727 5.576090 -21.780322 0.254098 1.708210 -16.919113 -0.000000 -0.000005 0.000001 0.000001 0.000003 -0.000002 0.000001 0.000003 -0.000002 0.000000 0.000003 -0.000002 -0.000001 0.000001 -0.000002 -0.000001 -0.000000 -0.000002 -0.000001 0.000001 -0.000002 -0.000002 0.000002 -0.000002 -0.614859 12.048386 12.577961 -38.286513 -25.188863 60.647879 0.000003 34.577365 0.000011 15.423189 -7.783352 -46.160536 -13.964551 17.994673 -8.156012 6.417136 -14.929458 -2.153407 0.000000 -0.000002 -0.000001 20.747888 12.104783 -50.816355 0.000001 -0.000002 0.000019 -0.000001 0.000000 0.000000 1.633056 1.227886 -51.010670 0.000001 -0.000048 0.000598 0.000001 -0.000000 0.000000 -7.567675 -6.576368 -50.472380 0.005859 -0.233764 2.870702 -0.000000 -0.000001 -0.000001 -21.962065 -10.468555 -48.927288 0.000001 -0.000483 0.005985 -0.000000 0.000001 0.000001 0.000002 0.000000 0.000000 0.000002 0.000000 0.000000 0.000002 0.000000 0.000002 0.000002 -0.000002 0.000003 0.000002 -0.000001 0.000003 0.000002 -0.000002 0.000003 0.000002 -0.000001 0.000003 0.000001 0.000001 0.000001 0.000001 0.000001 0.000001 0.000001 0.000001 0.000001 0.000001 0.000001 0.000001 0.000001 0.000001 0.000001 0.000001 0.000001 0.000001 0.000001 0.000001 0.000001 -0.000001 -0.000002 -0.000001 -0.000002 0.000001 -0.000001 
-0.483688 45.086262 -5.757853 -33.920365 1.055279 48.141069 -0.000001 0.000000 -0.000003 -61.786322 25.869654 28.041584 117.025661 -8.745871 -1.600226 -1.673355 2.305803 -13.166380 0.000000 0.000002 -0.000001 -0.000001 0.000001 0.000001 -52.618562 -27.300300 3.900293 61.689715 -7.297949 2.858034 4.307489 -15.651505 -27.919957 -0.000000 -0.000000 0.000002 0.000000 0.000001 -0.000002 57.691596 -18.111580 7.556444 8.193264 -5.077697 9.030661 8.707435 -2.362307 3.250419 0.150206 0.522089 -0.647061 0.150224 0.522092 -0.647050 -0.000000 0.000000 -0.000000 0.150167 0.522144 -0.647084 0.150271 0.522042 -0.647038 0.000001 0.000000 0.000000 -0.000000 0.000000 -0.000000 17.987833 -31.172420 10.880697 -21.378260 4.598409 -16.632457 -0.000059 -117.094468 -0.000073 -13.387249 -4.747811 -22.561105 -6.000705 -6.126810 4.616739 5.295107 11.413682 1.277391 0.000003 0.000001 -0.000003 1.467274 0.553598 -5.775709 0.096458 1.059772 -10.399750 -0.000000 0.000000 0.000001 0.081467 3.162838 -14.281668 0.112374 1.143126 -11.227985 -0.000001 0.000000 0.000001 0.493705 4.562595 -21.484345 0.204518 1.535948 -15.168648 -0.000001 -0.000002 -0.000001 -3.446048 5.984022 -22.631181 0.196678 1.506766 -14.873427 0.000000 -0.000005 0.000004 0.000004 -0.000003 0.000003 0.000004 -0.000003 0.000003 0.000003 -0.000002 0.000003 0.000002 -0.000001 0.000001 0.000002 -0.000001 0.000001 0.000002 -0.000001 0.000001 0.000000 -0.000001 0.000001 -0.011836 11.643616 14.024062 -49.589940 -21.038716 53.474384 -0.000011 29.145472 0.000020 15.568726 -3.924019 -47.298141 -13.964548 17.994670 -8.156018 6.417133 -14.929463 -2.153395 -0.000001 -0.000003 0.000001 20.747888 12.104782 -50.816355 0.000002 0.000001 0.000014 0.000000 -0.000001 0.000000 1.633058 1.227887 -51.010667 0.000000 -0.000049 0.000599 0.000000 0.000001 0.000001 -7.567672 -6.576367 -50.472380 0.005859 -0.233752 2.870694 -0.000000 0.000002 -0.000002 -21.962060 -10.468561 -48.927275 -0.000000 -0.000486 0.005984 0.000000 0.000002 -0.000000 -0.000001 0.000000 0.000001 -0.000001 0.000000 -0.000000 -0.000001 0.000000 0.000001 0.000001 0.000001 0.000002 0.000001 0.000002 0.000002 0.000001 0.000001 0.000002 0.000001 0.000002 0.000002 0.000003 -0.000002 -0.000002 0.000003 -0.000002 -0.000002 0.000003 -0.000002 -0.000002 0.000003 -0.000002 -0.000002 0.000003 -0.000002 -0.000002 0.000003 -0.000002 -0.000002 0.000003 -0.000002 -0.000002 -0.000001 0.000001 0.000001 -0.000001 0.000000 -0.000003 
